<svg width="153" height="150" viewBox="0 0 153 150" fill="none" xmlns="http://www.w3.org/2000/svg">
<g clip-path="url(#clip0_233_189)">
<path d="M0 55.6035C0 65.0043 2.02959 80.7802 6.1017 89.2371C6.26975 89.5862 6.43781 89.9483 6.60586 90.3104C12.3456 102.931 22.5065 113.017 35.1752 118.642L38.782 120.259L33.805 113.147C29.358 106.797 26.4493 99.4655 25.5702 91.7586C25.5056 91.1638 25.4539 90.6078 25.4151 90.1035L25.1436 85.7586C24.7558 79.5905 26.2554 73.4612 29.4355 68.1595C29.6811 67.7586 29.9268 67.3578 30.1982 66.9569C36.5973 57.2845 47.663 56.8966 59.2718 56.8966H72.393H78.8567C93.1414 56.8966 104.711 45.2586 104.711 28.4483C104.711 11.6379 93.1414 0 78.8567 0H51.7093C15.5128 0 0 23.2759 0 55.6035Z" fill="#D6A4DE"/>
<path d="M152.542 94.3965C152.542 84.9957 150.513 69.2198 146.441 60.7629C146.273 60.4138 146.105 60.0517 145.937 59.6896C140.197 47.0689 130.036 36.9827 117.367 31.3577L113.76 29.7413L118.737 36.8534C123.184 43.2025 126.093 50.5344 126.972 58.2413C127.037 58.8362 127.088 59.3922 127.127 59.8965L127.399 64.2413C127.787 70.4094 126.287 76.5388 123.107 81.8405C122.861 82.2413 122.616 82.6422 122.344 83.0431C115.945 92.7155 104.879 93.1034 93.2706 93.1034H80.1494H73.6857C59.401 93.1034 47.8311 104.741 47.8311 121.552C47.8311 138.362 59.401 150 73.6857 150H100.833C137.03 150 152.542 126.724 152.542 94.3965Z" fill="#FFCDBD"/>
</g>
<defs>
<clipPath id="clip0_233_189">
<rect width="152.542" height="150" fill="white"/>
</clipPath>
</defs>
</svg>
