<svg width="230" height="54" viewBox="0 0 230 54" fill="none" xmlns="http://www.w3.org/2000/svg">
<g clip-path="url(#clip0_243_27)">
<path d="M0 21.8276C0 24.3345 0.541224 28.5414 1.62712 30.7966C1.67193 30.8897 1.71675 30.9862 1.76156 31.0828C3.29216 34.4483 6.00173 37.1379 9.38007 38.6379L10.3419 39.069L9.01465 37.1724C7.82879 35.4793 7.05315 33.5241 6.81873 31.469C6.8015 31.3104 6.78771 31.1621 6.77737 31.0276L6.70497 29.869C6.60155 28.2241 7.00144 26.5897 7.84947 25.1759C7.91497 25.069 7.98047 24.9621 8.05286 24.8552C9.75927 22.2759 12.7101 22.1724 15.8058 22.1724H19.3048H21.0284C24.8377 22.1724 27.923 19.069 27.923 14.5862C27.923 10.1034 24.8377 7 21.0284 7H13.7891C4.13674 7 0 13.2069 0 21.8276Z" fill="#D6A4DE"/>
<path d="M40.6779 32.1724C40.6779 29.6655 40.1367 25.4586 39.0508 23.2034C39.006 23.1103 38.9612 23.0138 38.9163 22.9172C37.3857 19.5517 34.6762 16.8621 31.2978 15.3621L30.336 14.931L31.6632 16.8276C32.8491 18.5207 33.6248 20.4759 33.8592 22.531C33.8764 22.6897 33.8902 22.8379 33.9005 22.9724L33.9729 24.131C34.0764 25.7759 33.6765 27.4103 32.8284 28.8241C32.7629 28.931 32.6974 29.0379 32.625 29.1448C30.9186 31.7241 27.9678 31.8276 24.8721 31.8276H21.3731H19.6495C15.8402 31.8276 12.7549 34.931 12.7549 39.4138C12.7549 43.8966 15.8402 47 19.6495 47H26.8888C36.5412 47 40.6779 40.7931 40.6779 32.1724Z" fill="#FFCDBD"/>
</g>
<mask id="mask0_243_27" style="mask-type:alpha" maskUnits="userSpaceOnUse" x="63" y="14" width="166" height="36">
<path d="M83.68 14.98V40H79.576V29.056H67.804V40H63.7V14.98H67.804V25.708H79.576V14.98H83.68ZM87.7148 29.992C87.7148 28 88.1228 26.236 88.9388 24.7C89.7788 23.164 90.9068 21.976 92.3228 21.136C93.7628 20.272 95.3468 19.84 97.0748 19.84C98.6348 19.84 99.9908 20.152 101.143 20.776C102.319 21.376 103.255 22.132 103.951 23.044V20.164H108.091V40H103.951V37.048C103.255 37.984 102.307 38.764 101.107 39.388C99.9068 40.012 98.5388 40.324 97.0028 40.324C95.2988 40.324 93.7388 39.892 92.3228 39.028C90.9068 38.14 89.7788 36.916 88.9388 35.356C88.1228 33.772 87.7148 31.984 87.7148 29.992ZM103.951 30.064C103.951 28.696 103.663 27.508 103.087 26.5C102.535 25.492 101.803 24.724 100.891 24.196C99.9788 23.668 98.9948 23.404 97.9388 23.404C96.8828 23.404 95.8988 23.668 94.9868 24.196C94.0748 24.7 93.3308 25.456 92.7548 26.464C92.2028 27.448 91.9268 28.624 91.9268 29.992C91.9268 31.36 92.2028 32.56 92.7548 33.592C93.3308 34.624 94.0748 35.416 94.9868 35.968C95.9228 36.496 96.9068 36.76 97.9388 36.76C98.9948 36.76 99.9788 36.496 100.891 35.968C101.803 35.44 102.535 34.672 103.087 33.664C103.663 32.632 103.951 31.432 103.951 30.064ZM117.585 23.044C118.185 22.036 118.977 21.256 119.961 20.704C120.969 20.128 122.157 19.84 123.525 19.84V24.088H122.481C120.873 24.088 119.649 24.496 118.809 25.312C117.993 26.128 117.585 27.544 117.585 29.56V40H113.481V20.164H117.585V23.044ZM151.31 19.84C152.87 19.84 154.262 20.164 155.486 20.812C156.734 21.46 157.706 22.42 158.402 23.692C159.122 24.964 159.482 26.5 159.482 28.3V40H155.414V28.912C155.414 27.136 154.97 25.78 154.082 24.844C153.194 23.884 151.982 23.404 150.446 23.404C148.91 23.404 147.686 23.884 146.774 24.844C145.886 25.78 145.442 27.136 145.442 28.912V40H141.374V28.912C141.374 27.136 140.93 25.78 140.042 24.844C139.154 23.884 137.942 23.404 136.406 23.404C134.87 23.404 133.646 23.884 132.734 24.844C131.846 25.78 131.402 27.136 131.402 28.912V40H127.298V20.164H131.402V22.432C132.074 21.616 132.926 20.98 133.958 20.524C134.99 20.068 136.094 19.84 137.27 19.84C138.854 19.84 140.27 20.176 141.518 20.848C142.766 21.52 143.726 22.492 144.398 23.764C144.998 22.564 145.934 21.616 147.206 20.92C148.478 20.2 149.846 19.84 151.31 19.84ZM173.308 40.324C171.436 40.324 169.744 39.904 168.232 39.064C166.72 38.2 165.532 37 164.668 35.464C163.804 33.904 163.372 32.104 163.372 30.064C163.372 28.048 163.816 26.26 164.704 24.7C165.592 23.14 166.804 21.94 168.34 21.1C169.876 20.26 171.592 19.84 173.488 19.84C175.384 19.84 177.1 20.26 178.636 21.1C180.172 21.94 181.384 23.14 182.272 24.7C183.16 26.26 183.604 28.048 183.604 30.064C183.604 32.08 183.148 33.868 182.236 35.428C181.324 36.988 180.076 38.2 178.492 39.064C176.932 39.904 175.204 40.324 173.308 40.324ZM173.308 36.76C174.364 36.76 175.348 36.508 176.26 36.004C177.196 35.5 177.952 34.744 178.528 33.736C179.104 32.728 179.392 31.504 179.392 30.064C179.392 28.624 179.116 27.412 178.564 26.428C178.012 25.42 177.28 24.664 176.368 24.16C175.456 23.656 174.472 23.404 173.416 23.404C172.36 23.404 171.376 23.656 170.464 24.16C169.576 24.664 168.868 25.42 168.34 26.428C167.812 27.412 167.548 28.624 167.548 30.064C167.548 32.2 168.088 33.856 169.168 35.032C170.272 36.184 171.652 36.76 173.308 36.76ZM197.669 19.84C199.229 19.84 200.621 20.164 201.845 20.812C203.093 21.46 204.065 22.42 204.761 23.692C205.457 24.964 205.805 26.5 205.805 28.3V40H201.737V28.912C201.737 27.136 201.293 25.78 200.405 24.844C199.517 23.884 198.305 23.404 196.769 23.404C195.233 23.404 194.009 23.884 193.097 24.844C192.209 25.78 191.765 27.136 191.765 28.912V40H187.661V20.164H191.765V22.432C192.437 21.616 193.289 20.98 194.321 20.524C195.377 20.068 196.493 19.84 197.669 19.84ZM228.896 20.164L216.728 49.324H212.48L216.512 39.676L208.7 20.164H213.272L218.852 35.284L224.648 20.164H228.896Z" fill="white"/>
</mask>
<g mask="url(#mask0_243_27)">
<rect x="61" width="172" height="54" fill="url(#paint0_linear_243_27)"/>
</g>
<defs>
<linearGradient id="paint0_linear_243_27" x1="61" y1="27" x2="233" y2="27" gradientUnits="userSpaceOnUse">
<stop stop-color="#D6A4DE"/>
<stop offset="1" stop-color="#FFCDBD"/>
</linearGradient>
<clipPath id="clip0_243_27">
<rect width="40.678" height="40" fill="white" transform="translate(0 7)"/>
</clipPath>
</defs>
</svg>
